<svg id="visual" viewBox="0 0 900 300" width="900" height="300" xmlns="http://www.w3.org/2000/svg" xmlns:xlink="http://www.w3.org/1999/xlink" version="1.1"><path d="M0 40L82 28L164 52L245 40L327 22L409 34L491 52L573 46L655 34L736 37L818 31L900 37L900 0L818 0L736 0L655 0L573 0L491 0L409 0L327 0L245 0L164 0L82 0L0 0Z" fill="#0c134f"></path><path d="M0 85L82 52L164 106L245 82L327 73L409 73L491 88L573 67L655 91L736 61L818 52L900 76L900 35L818 29L736 35L655 32L573 44L491 50L409 32L327 20L245 38L164 50L82 26L0 38Z" fill="#121345"></path><path d="M0 121L82 82L164 136L245 100L327 100L409 100L491 112L573 112L655 133L736 85L818 97L900 118L900 74L818 50L736 59L655 89L573 65L491 86L409 71L327 71L245 80L164 104L82 50L0 83Z" fill="#16143b"></path><path d="M0 133L82 97L164 151L245 112L327 121L409 127L491 142L573 127L655 169L736 109L818 109L900 136L900 116L818 95L736 83L655 131L573 110L491 110L409 98L327 98L245 98L164 134L82 80L0 119Z" fill="#171431"></path><path d="M0 196L82 217L164 226L245 166L327 229L409 193L491 181L573 178L655 211L736 160L818 196L900 202L900 134L818 107L736 107L655 167L573 125L491 140L409 125L327 119L245 110L164 149L82 95L0 131Z" fill="#171427"></path><path d="M0 268L82 283L164 289L245 289L327 271L409 277L491 271L573 280L655 283L736 286L818 271L900 268L900 200L818 194L736 158L655 209L573 176L491 179L409 191L327 227L245 164L164 224L82 215L0 194Z" fill="#16141e"></path><path d="M0 301L82 301L164 301L245 301L327 301L409 301L491 301L573 301L655 301L736 301L818 301L900 301L900 266L818 269L736 284L655 281L573 278L491 269L409 275L327 269L245 287L164 287L82 281L0 266Z" fill="#141414"></path></svg>